<?xml version="1.0" encoding="UTF-8" standalone="no"?>
<svg
   viewBox="0 0 611 512"
   version="1.1"
   id="svg1"
   sodipodi:docname="speaker-gear-orig.svg"
   xml:space="preserve"
   inkscape:version="1.4 (86a8ad7, 2024-10-11)"
   width="611"
   height="512"
   xmlns:inkscape="http://www.inkscape.org/namespaces/inkscape"
   xmlns:sodipodi="http://sodipodi.sourceforge.net/DTD/sodipodi-0.dtd"
   xmlns="http://www.w3.org/2000/svg"
   xmlns:svg="http://www.w3.org/2000/svg"><defs
     id="defs1"><inkscape:path-effect
       effect="fillet_chamfer"
       id="path-effect6"
       is_visible="true"
       lpeversion="1"
       nodesatellites_param="F,0,1,1,0,11.035041,0,1 @ F,0,1,1,0,11.035041,0,1 @ F,0,0,1,0,0,0,1 @ F,0,0,1,0,0,0,1 @ F,0,1,1,0,11.035041,0,1 @ F,0,0,1,0,11.035041,0,1 @ F,0,0,1,0,0,0,1 @ F,0,0,1,0,0,0,1 @ F,0,0,1,0,0,0,1 @ F,0,0,1,0,0,0,1 @ F,0,0,1,0,0,0,1 @ F,0,0,1,0,0,0,1 @ F,0,0,1,0,0,0,1 @ F,0,0,1,0,0,0,1 @ F,0,0,1,0,0,0,1 @ F,0,0,1,0,0,0,1 @ F,0,0,1,0,0,0,1 @ F,0,0,1,0,0,0,1 @ F,0,0,1,0,0,0,1 @ F,0,0,1,0,0,0,1 @ F,0,0,1,0,0,0,1 @ F,0,0,1,0,0,0,1 @ F,0,0,1,0,0,0,1 @ F,0,0,1,0,0,0,1 @ F,0,0,1,0,0,0,1 @ F,0,0,1,0,0,0,1 @ F,0,0,1,0,0,0,1 @ F,0,0,1,0,0,0,1 @ F,0,0,1,0,0,0,1 @ F,0,0,1,0,0,0,1 @ F,0,0,1,0,0,0,1"
       radius="0"
       unit="px"
       method="auto"
       mode="F"
       chamfer_steps="1"
       flexible="false"
       use_knot_distance="true"
       apply_no_radius="true"
       apply_with_radius="true"
       only_selected="false"
       hide_knots="false" /></defs><sodipodi:namedview
     id="namedview1"
     pagecolor="#ffffff"
     bordercolor="#000000"
     borderopacity="0.25"
     inkscape:showpageshadow="2"
     inkscape:pageopacity="0.0"
     inkscape:pagecheckerboard="0"
     inkscape:deskcolor="#d1d1d1"
     inkscape:zoom="1.5917969"
     inkscape:cx="284.58405"
     inkscape:cy="283.64172"
     inkscape:window-width="1920"
     inkscape:window-height="1017"
     inkscape:window-x="-8"
     inkscape:window-y="733"
     inkscape:window-maximized="1"
     inkscape:current-layer="svg1" /><!--!Font Awesome Free 6.6.0 by @fontawesome - https://fontawesome.com License - https://fontawesome.com/license/free Copyright 2024 Fonticons, Inc.--><path
     d="M 301.1,34.8 C 312.6,40 320,51.4 320,64 v 384 c 0,12.6 -7.4,24 -18.9,29.2 -11.5,5.2 -25,3.1 -34.4,-5.3 L 131.8,352 H 64 C 28.7,352 0,323.3 0,288 v -64 c 0,-35.3 28.7,-64 64,-64 h 67.8 L 266.7,40.1 c 9.4,-8.4 22.9,-10.4 34.4,-5.3 z"
     id="path1"
     sodipodi:nodetypes="csssccssssccc" /><path
     id="path6"
     d="m 819.82812,76.785041 v 91.478749 c 0,6.09448 4.81613,9.81309 10.87816,9.23313 34.82434,-3.33165 68.40257,16.53816 81.7795,49.79197 14.76734,36.71026 0.47861,78.70138 -33.61469,98.78533 -14.67699,8.40266 -31.55032,11.8912 -48.18441,10.12693 -6.05569,-0.64229 -10.85856,3.02457 -10.85856,9.11905 l 0,91.45531 c 0,6.09448 4.91777,11.55354 11.00561,11.8217 11.07968,0.48805 22.22974,0.0527 33.30885,-1.43315 l 39.37695,43.19922 c 6.28214,6.88102 15.94275,9.61741 24.66016,6.31641 13.10115,-4.90806 25.99923,-10.97075 38.55664,-18.22071 12.55733,-7.25006 24.25545,-15.38735 35.05667,-24.27929 7.2175,-5.89899 9.6793,-15.6349 6.8613,-24.51563 l -17.72461,-55.70117 c 10.43061,-13.53061 18.94751,-28.37804 25.40231,-43.99805 l 57.0879,-12.52148 c 9.0211,-1.97515 16.3089,-8.9533 17.8184,-18.13867 2.1149,-12.53703 3.3233,-25.24401 3.539,-38.07031 l 0.02,-9.36524 c -0.2172,-12.57622 -1.3273,-25.09782 -3.4668,-37.60352 -1.5787,-9.13445 -8.7682,-16.18612 -17.8438,-18.10546 l -57.1972,-12.47071 c -3.1973,-7.73803 -6.9286,-15.39983 -11.2286,-22.84765 -4.3,-7.44781 -9.06916,-14.50854 -14.17183,-21.14649 l 17.79883,-55.771482 c 2.8756,-8.819382 0.3635,-18.569505 -6.7578,-24.503906 l 0.033,-0.134766 C 992.20236,51.179469 981.91358,43.956873 971.13086,37.480469 l -8.12109,-4.666016 c -11.21579,-6.226307 -22.82347,-11.531622 -34.73829,-15.96875 -8.65952,-3.198785 -18.39803,-0.463575 -24.61914,6.361328 l -39.38476,43.179688 c -11.04123,-1.465029 -22.23641,-1.924857 -33.43435,-1.429608 -6.08776,0.269242 -11.00511,5.733445 -11.00511,11.82793 z"
     style="stroke-width:0.99963826;stroke-dasharray:none;fill-opacity:1"
     transform="matrix(1.0073644,0,0,1.0073644,-497.46803,-1.8911266)"
     inkscape:original-d="m 819.82812,65.75 v 113.54883 a 80.000011,80.000011 0 0 1 59.04297,146.77539 80.000011,80.000011 0 0 1 -59.04297,8.21094 v 113.52539 c 14.67472,1.44799 29.55753,1.3326 44.31446,-0.64649 l 39.37695,43.19922 c 6.28214,6.88102 15.94275,9.61741 24.66016,6.31641 13.10115,-4.90806 25.99923,-10.97075 38.55664,-18.22071 12.55733,-7.25006 24.25545,-15.38735 35.05667,-24.27929 7.2175,-5.89899 9.6793,-15.6349 6.8613,-24.51563 l -17.72461,-55.70117 c 10.43061,-13.53061 18.94751,-28.37804 25.40231,-43.99805 l 57.0879,-12.52148 c 9.0211,-1.97515 16.3089,-8.9533 17.8184,-18.13867 2.1149,-12.53703 3.3233,-25.24401 3.539,-38.07031 l 0.02,-9.36524 c -0.2172,-12.57622 -1.3273,-25.09782 -3.4668,-37.60352 -1.5787,-9.13445 -8.7682,-16.18612 -17.8438,-18.10546 l -57.1972,-12.47071 c -3.1973,-7.73803 -6.9286,-15.39983 -11.2286,-22.84765 -4.3,-7.44781 -9.06916,-14.50854 -14.17183,-21.14649 l 17.79883,-55.771482 c 2.8756,-8.819382 0.3635,-18.569505 -6.7578,-24.503906 l 0.033,-0.134766 C 992.20236,51.179469 981.91358,43.956873 971.13086,37.480469 l -8.12109,-4.666016 C 951.79398,26.588146 940.1863,21.282831 928.27148,16.845703 919.61196,13.646918 909.87345,16.382128 903.65234,23.207031 L 864.26758,66.386719 C 849.60786,64.441563 834.67676,64.268431 819.82812,65.75 Z"
     inkscape:path-effect="#path-effect6" /></svg>
