<?xml version="1.0" encoding="UTF-8" standalone="no"?>
<svg
   viewBox="0 0 611 512"
   version="1.1"
   id="svg1"
   sodipodi:docname="speaker-gear.svg"
   xml:space="preserve"
   inkscape:version="1.4 (86a8ad7, 2024-10-11)"
   width="611"
   height="512"
   xmlns:inkscape="http://www.inkscape.org/namespaces/inkscape"
   xmlns:sodipodi="http://sodipodi.sourceforge.net/DTD/sodipodi-0.dtd"
   xmlns="http://www.w3.org/2000/svg"
   xmlns:svg="http://www.w3.org/2000/svg"><defs
     id="defs1"><inkscape:path-effect
       effect="fillet_chamfer"
       id="path-effect6"
       is_visible="true"
       lpeversion="1"
       nodesatellites_param="F,0,1,1,0,11.035041,0,1 @ F,0,1,1,0,11.035041,0,1 @ F,0,0,1,0,0,0,1 @ F,0,0,1,0,0,0,1 @ F,0,1,1,0,11.035041,0,1 @ F,0,0,1,0,11.035041,0,1 @ F,0,0,1,0,0,0,1 @ F,0,0,1,0,0,0,1 @ F,0,0,1,0,0,0,1 @ F,0,0,1,0,0,0,1 @ F,0,0,1,0,0,0,1 @ F,0,0,1,0,0,0,1 @ F,0,0,1,0,0,0,1 @ F,0,0,1,0,0,0,1 @ F,0,0,1,0,0,0,1 @ F,0,0,1,0,0,0,1 @ F,0,0,1,0,0,0,1 @ F,0,0,1,0,0,0,1 @ F,0,0,1,0,0,0,1 @ F,0,0,1,0,0,0,1 @ F,0,0,1,0,0,0,1 @ F,0,0,1,0,0,0,1 @ F,0,0,1,0,0,0,1 @ F,0,0,1,0,0,0,1 @ F,0,0,1,0,0,0,1 @ F,0,0,1,0,0,0,1 @ F,0,0,1,0,0,0,1 @ F,0,0,1,0,0,0,1 @ F,0,0,1,0,0,0,1 @ F,0,0,1,0,0,0,1 @ F,0,0,1,0,0,0,1"
       radius="0"
       unit="px"
       method="auto"
       mode="F"
       chamfer_steps="1"
       flexible="false"
       use_knot_distance="true"
       apply_no_radius="true"
       apply_with_radius="true"
       only_selected="false"
       hide_knots="false" /></defs><sodipodi:namedview
     id="namedview1"
     pagecolor="#ffffff"
     bordercolor="#000000"
     borderopacity="0.25"
     inkscape:showpageshadow="2"
     inkscape:pageopacity="0.0"
     inkscape:pagecheckerboard="0"
     inkscape:deskcolor="#d1d1d1"
     inkscape:zoom="1.5917969"
     inkscape:cx="295.2638"
     inkscape:cy="230.24294"
     inkscape:window-width="1920"
     inkscape:window-height="1017"
     inkscape:window-x="-8"
     inkscape:window-y="733"
     inkscape:window-maximized="1"
     inkscape:current-layer="svg1" /><!--!Font Awesome Free 6.6.0 by @fontawesome - https://fontawesome.com License - https://fontawesome.com/license/free Copyright 2024 Fonticons, Inc.--><path
     d="M 301.1,34.8 C 312.6,40 320,51.4 320,64 v 384 c 0,12.6 -7.4,24 -18.9,29.2 -11.5,5.2 -25,3.1 -34.4,-5.3 L 131.8,352 H 64 C 28.7,352 0,323.3 0,288 v -64 c 0,-35.3 28.7,-64 64,-64 h 67.8 L 266.7,40.1 c 9.4,-8.4 22.9,-10.4 34.4,-5.3 z"
     id="path1"
     sodipodi:nodetypes="csssccssssccc" /><path
     id="path6"
     style="fill-opacity:1;stroke-width:1.007;stroke-dasharray:none"
     d="m 429.74609,25.748047 c -3.85312,0.125113 -7.25322,2.518089 -9.55079,5.479794 -14.12717,15.487006 -28.25259,30.975605 -42.38085,46.461612 -6.08582,-0.811583 -12.14474,-1.592438 -18.30651,-1.972698 -2.51542,-0.163277 -5.00548,-0.267149 -7.4657,-0.309611 -3.86478,-0.07076 -7.77082,-0.05489 -11.6106,0.128012 -0.19471,0.86916 0.0324,1.548569 -0.0349,2.447906 0.001,28.936978 -0.009,57.874648 0.0349,86.811858 21.37649,-1.60329 43.20954,4.65708 60.59127,17.1783 18.45222,13.16966 31.69073,33.39217 36.43933,55.55395 4.27063,19.63945 1.9585,40.66994 -6.63731,58.85176 -8.86638,19.00922 -24.35026,34.95138 -43.35032,43.92966 -14.57767,6.93493 -30.99498,9.91161 -47.08203,8.63868 0.0138,29.46269 -0.004,58.92553 0.0384,88.38826 0.0594,0.26441 -0.20933,0.98507 0.33463,0.7172 8.75664,0.31591 17.54782,0.0682 26.25586,-0.8457 0.63382,-0.0703 1.57892,-0.18941 2.33181,-0.28656 2.56416,-0.28932 5.27034,-0.88922 7.75014,0.15095 2.53249,0.91113 4.46651,2.87105 6.16351,4.88438 8.53267,9.41211 17.12164,18.78394 25.67642,28.19068 4.58902,5.00677 9.17726,10.06792 13.83984,15.02344 3.03024,2.59234 7.57629,3.51316 11.24352,1.76272 15.07496,-5.68382 29.66577,-12.93208 43.39225,-21.46434 2.53782,-1.57424 5.15647,-3.27203 7.69236,-4.97221 3.36799,-2.27259 6.84334,-4.72882 10.14755,-7.21862 1.36462,-1.01917 2.73235,-2.07413 4.08527,-3.14093 1.9375,-1.56329 3.94341,-3.05745 5.76221,-4.75824 2.82365,-3.02177 3.28774,-7.68881 1.84975,-11.46186 -6.50059,-20.48565 -13.01534,-40.96652 -19.53619,-61.44574 6.57852,-8.21271 12.58991,-16.88795 17.80469,-26.03125 0.44306,-0.80523 1.03624,-1.84812 1.53175,-2.74822 3.2777,-5.94083 6.1196,-12.10771 8.76447,-18.35215 0.92671,-2.40887 2.78372,-4.41719 5.11164,-5.53111 2.06437,-1.07479 4.43174,-1.18612 6.64677,-1.78012 18.41281,-4.08847 36.86185,-8.0199 55.25018,-12.21434 3.928,-1.18701 7.19037,-4.73075 7.53405,-8.89646 1.0615,-6.12475 1.7781,-12.1642 2.35957,-18.3142 0.19528,-2.19879 0.38872,-4.75794 0.52467,-6.96926 0.20681,-3.50489 0.3509,-6.98736 0.40636,-10.44723 0.28033,-15.08565 -0.70145,-30.21352 -3.28904,-45.08533 -0.63247,-4.50548 -4.65549,-7.98885 -9.02422,-8.74274 -21.14904,-4.59136 -42.29167,-9.22126 -63.43925,-13.82313 -2.33451,-5.91495 -4.86456,-11.75495 -7.68945,-17.45313 -0.32927,-0.63588 -0.74861,-1.48652 -1.1056,-2.17167 -0.98597,-1.9132 -1.94434,-3.73178 -2.95586,-5.54144 -3.66719,-6.59705 -7.78566,-12.93945 -12.25104,-19.02322 -1.51989,-2.06732 -3.19585,-4.23663 -4.77765,-6.343 -0.47613,-0.62956 -0.95215,-1.25921 -1.42743,-1.88942 6.76012,-21.19431 13.57565,-42.372296 20.21588,-63.603721 0.86435,-4.083539 -0.82783,-8.606614 -4.25111,-11.026079 -4.36385,-3.829314 -9.08805,-7.221479 -13.79335,-10.61297 -11.229,-7.877131 -23.12647,-14.79786 -35.47158,-20.770955 -6.94137,-3.325867 -14.03476,-6.348123 -21.27838,-8.951372 -0.99307,-0.294709 -2.03376,-0.440083 -3.0699,-0.400136 z" /></svg>
